<svg width="46" height="37" viewBox="0 0 46 37" fill="none" xmlns="http://www.w3.org/2000/svg">
<path d="M34.7085 14.0068H24.025V17.9428C24.025 20.7543 21.7056 23.0034 18.9644 23.0034C16.153 23.0034 13.9038 20.7543 13.9038 17.9428V9.43823L9.33525 12.1794C7.92953 12.9525 7.15638 14.4285 7.15638 16.0451V19.3485L1.53351 22.5817C0.408936 23.2143 0.057506 24.62 0.690079 25.6743L6.31295 35.3737C6.94552 36.4983 8.28096 36.8497 9.40553 36.2172L16.645 32H26.2741C28.7342 32 30.7724 30.032 30.7724 27.5017H31.897C33.0919 27.5017 34.1462 26.5177 34.1462 25.2526V20.7543H34.7085C35.6222 20.7543 36.3953 20.0514 36.3953 19.0674V15.6937C36.3953 14.78 35.6222 14.0068 34.7085 14.0068ZM45.0405 11.4062L39.4176 1.63649C38.785 0.582202 37.4496 0.230773 36.3953 0.863346L29.0856 5.01021H21.9164C21.073 5.01021 20.2296 5.29136 19.5267 5.71307L17.2073 7.18908C16.5044 7.61079 16.153 8.31365 16.153 9.0868V17.9428C16.153 19.5594 17.3478 20.7543 18.9644 20.7543C20.5107 20.7543 21.7758 19.5594 21.7758 17.9428V11.7577H34.7085C36.817 11.7577 38.6445 13.5851 38.6445 15.6937V17.732L44.2673 14.4988C45.3216 13.8662 45.6731 12.4605 45.0405 11.4062Z" fill="black"/>
</svg>
