<svg width="33" height="36" viewBox="0 0 33 36" fill="none" xmlns="http://www.w3.org/2000/svg">
<path d="M29.2165 6.7338L20.6 1.86595C18.1775 0.500576 15.2473 0.500576 12.8248 1.86595L4.23733 6.71896C2.06145 7.93592 0.712402 10.2808 0.712402 12.8186V22.02C0.712402 24.9586 2.26453 27.6596 4.78856 29.0695L14.5655 34.5904C15.9001 35.3473 17.5247 35.3473 18.8593 34.5904L28.6362 29.0695C31.1458 27.6448 32.7124 24.9437 32.7124 22.02V12.7741C32.7124 10.266 31.3779 7.95077 29.2165 6.7338ZM29.1294 14.7628L20.0052 30.2271C19.6571 30.8208 19.1639 31.2957 18.5982 31.6222C18.0324 31.9487 17.3797 32.1268 16.7124 32.1268C15.3634 32.1268 14.1158 31.3996 13.4196 30.2271L4.29536 14.7628C3.55556 13.5161 3.55556 11.943 4.29536 10.6964L4.35338 10.5925C5.04966 9.42003 6.29717 8.70766 7.64622 8.70766H25.7786C27.1276 8.70766 28.3751 9.43487 29.0714 10.6073L29.1294 10.7112C29.8692 11.9578 29.8692 13.5161 29.1294 14.7628Z" fill="#1F211C"/>
<path d="M21.6879 13.0707H11.7369C11.4612 13.0707 11.2437 13.2933 11.2437 13.5753V14.1244C11.2437 14.4064 11.4612 14.629 11.7369 14.629H15.2183C15.6099 14.629 15.9146 14.9555 15.9146 15.3414V26.3979C15.9146 26.6799 16.1321 26.9025 16.4078 26.9025H17.0025C17.2781 26.9025 17.4957 26.6799 17.4957 26.3979V15.3562C17.4957 14.9555 17.8148 14.6439 18.192 14.6439H21.6879C21.9635 14.6439 22.1811 14.4212 22.1811 14.1393V13.5901C22.1811 13.3082 21.9635 13.0707 21.6879 13.0707Z" fill="#1F211C"/>
</svg>
