<svg width="36" height="37" viewBox="0 0 36 37" fill="none" xmlns="http://www.w3.org/2000/svg">
<path d="M35.4944 1.91763C35.3538 1.49592 35.0024 1.14449 34.5807 1.00392C32.3315 0.511916 30.5744 0.511916 28.8172 0.511916C21.5778 0.511916 17.22 4.44793 13.9869 9.50851H6.60687C5.4823 9.5788 4.14687 10.3519 3.58458 11.4062L0.140572 18.3645C0.0702859 18.5754 0 18.8565 0 19.0674C0 20.0514 0.702859 20.7543 1.68686 20.7543H8.92631L7.38002 22.3708C6.53659 23.144 6.4663 24.62 7.38002 25.5337L10.9646 29.1183C11.7377 29.8914 13.2137 30.032 14.1275 29.1183L15.6738 27.572V34.8114C15.744 35.7954 16.4469 36.4983 17.4309 36.4983C17.6418 36.4983 17.9229 36.428 18.1338 36.3577L25.0921 32.9137C26.1464 32.3514 26.9195 31.016 26.9195 29.8914V22.5114C32.0504 19.2783 35.9161 14.9205 35.9161 7.68108C35.9864 5.92393 35.9864 4.16678 35.4944 1.91763ZM26.9898 12.3199C25.3732 12.3199 24.1784 11.1251 24.1784 9.50851C24.1784 7.96222 25.3732 6.69708 26.9898 6.69708C28.5361 6.69708 29.8012 7.96222 29.8012 9.50851C29.8012 11.1251 28.5361 12.3199 26.9898 12.3199Z" fill="black"/>
</svg>
