<svg width="33" height="37" viewBox="0 0 33 37" fill="none" xmlns="http://www.w3.org/2000/svg">
<path d="M25.354 23.0034C23.7375 23.0034 22.2615 23.5657 21.1369 24.4794L13.8974 19.9811C14.038 19.5594 14.038 19.0674 14.038 18.5051C14.038 18.0131 14.038 17.5211 13.8974 17.0994L21.1369 12.6011C22.2615 13.5148 23.7375 14.0068 25.354 14.0068C29.0792 14.0068 32.1015 11.0548 32.1015 7.25936C32.1015 3.53421 29.0792 0.511916 25.354 0.511916C21.5586 0.511916 18.6066 3.53421 18.6066 7.25936C18.6066 7.82165 18.6066 8.31365 18.7472 8.73537L11.5077 13.2337C10.3831 12.3199 8.90714 11.7577 7.36085 11.7577C3.56541 11.7577 0.613405 14.78 0.613405 18.5051C0.613405 22.3005 3.56541 25.2526 7.36085 25.2526C8.90714 25.2526 10.3831 24.7606 11.5077 23.8468L18.7472 28.3451C18.6066 28.7668 18.6066 29.2588 18.6066 29.8211V29.7509C18.6066 33.5463 21.5586 36.4983 25.354 36.4983C29.0792 36.4983 32.1015 33.5463 32.1015 29.7509C32.1015 26.0257 29.0792 23.0034 25.354 23.0034Z" fill="black"/>
</svg>
