<svg width="34" height="37" viewBox="0 0 34 37" fill="none" xmlns="http://www.w3.org/2000/svg">
<path d="M31.7532 6.41593L18.2583 0.79306C17.8366 0.652488 17.4149 0.582202 16.9932 0.582202C16.5012 0.582202 16.0795 0.652488 15.6578 0.79306L2.16287 6.41593C0.897719 6.97822 0.124574 8.17308 0.124574 9.50851C0.124574 23.4954 8.13717 33.1246 15.6578 36.2874C16.5012 36.6389 17.4149 36.6389 18.2583 36.2874C24.3029 33.7571 33.8618 25.112 33.8618 9.50851C33.8618 8.17308 33.0184 6.97822 31.7532 6.41593ZM16.9932 31.9297V5.15079L29.2932 10.2817C29.0824 20.8948 23.5298 28.6263 16.9932 31.9297Z" fill="black"/>
</svg>
