<svg xmlns="http://www.w3.org/2000/svg" width="64" height="64" viewBox="0 0 64 64"><defs><style>.a{fill:#dce1da;}.b{fill:#7f9178;}</style></defs><g transform="translate(-211 -2416)"><circle class="a" cx="32" cy="32" r="32" transform="translate(211 2416)"/><path class="b" d="M.608,16.5H2.126C3.149,21.316,8.529,24,13.5,24s10.352-2.69,11.374-7.5h1.518a.562.562,0,0,0,.4-.96L23.648,12.4a.563.563,0,0,0-.8,0L19.71,15.54a.562.562,0,0,0,.4.96h1.647C20.8,19.046,17.773,20.559,15,20.907V12h2.437A.563.563,0,0,0,18,11.438V9.563A.563.563,0,0,0,17.437,9H15V8.744a4.5,4.5,0,1,0-3,0V9H9.563A.563.563,0,0,0,9,9.563v1.875A.563.563,0,0,0,9.563,12H12v8.907c-2.763-.347-5.8-1.86-6.755-4.407H6.892a.562.562,0,0,0,.4-.96L4.148,12.4a.563.563,0,0,0-.8,0L.21,15.54A.563.563,0,0,0,.608,16.5ZM13.5,3A1.5,1.5,0,1,1,12,4.5,1.5,1.5,0,0,1,13.5,3Z" transform="translate(229.956 2436)"/></g></svg>