<svg xmlns="http://www.w3.org/2000/svg" width="64" height="64" viewBox="0 0 64 64"><defs><style>.a{fill:#dce1da;}.b{fill:#7f9178;}</style></defs><g transform="translate(-706 -2416)"><circle class="a" cx="32" cy="32" r="32" transform="translate(706 2416)"/><path class="b" d="M10.5,24a3,3,0,0,0,3-3h-6A3,3,0,0,0,10.5,24Zm10.1-7.018c-.906-.973-2.6-2.437-2.6-7.232a7.4,7.4,0,0,0-6-7.273V1.5a1.5,1.5,0,1,0-3,0v.977A7.4,7.4,0,0,0,3,9.75c0,4.8-1.695,6.259-2.6,7.232A1.465,1.465,0,0,0,0,18a1.5,1.5,0,0,0,1.5,1.5H19.5A1.5,1.5,0,0,0,21,18a1.464,1.464,0,0,0-.4-1.018Z" transform="translate(727 2436)"/></g></svg>