<svg xmlns="http://www.w3.org/2000/svg" width="64" height="64" viewBox="0 0 64 64"><defs><style>.a{fill:#dce1da;}.b{fill:#7f9178;}</style></defs><g transform="translate(-706 -2624)"><circle class="a" cx="32" cy="32" r="32" transform="translate(706 2624)"/><path class="b" d="M19.955,12a2.272,2.272,0,0,1-1.941-1.1L15,5.906l-3.009,5A2.28,2.28,0,0,1,10.045,12a2.156,2.156,0,0,1-.623-.089L3,10.078v8.344a1.5,1.5,0,0,0,1.134,1.453l10.134,2.536a3.047,3.047,0,0,0,1.453,0l10.144-2.536A1.5,1.5,0,0,0,27,18.422V10.078l-6.422,1.833A2.156,2.156,0,0,1,19.955,12ZM29.92,6.741,27.506,1.922a.766.766,0,0,0-.783-.417L15,3l4.3,7.13a.77.77,0,0,0,.867.342l9.277-2.648a.772.772,0,0,0,.478-1.083ZM2.494,1.922.08,6.741A.764.764,0,0,0,.553,7.819L9.83,10.467a.77.77,0,0,0,.867-.342L15,3,3.272,1.5a.766.766,0,0,0-.778.417Z" transform="translate(723.002 2643.502)"/></g></svg>