<svg xmlns="http://www.w3.org/2000/svg" width="64" height="64" viewBox="0 0 64 64"><defs><style>.a{fill:#dce1da;}.b{fill:#7f9178;}</style></defs><g transform="translate(-211 -2624)"><circle class="a" cx="32" cy="32" r="32" transform="translate(211 2624)"/><path class="b" d="M16.5,0H1.5A1.5,1.5,0,0,0,0,1.5V12H18V1.5A1.5,1.5,0,0,0,16.5,0ZM0,15a3,3,0,0,0,3,3H6v3a3,3,0,0,0,6,0V18h3a3,3,0,0,0,3-3V13.5H0Zm9,4.875A1.125,1.125,0,1,1,7.875,21,1.125,1.125,0,0,1,9,19.875Z" transform="translate(234 2644)"/></g></svg>