<svg width="37" height="37" viewBox="0 0 37 37" fill="none" xmlns="http://www.w3.org/2000/svg">
<path d="M35.7419 2.01041C35.6014 1.58869 35.2499 1.23726 34.8282 1.09669C32.5791 0.60469 30.8219 0.60469 29.0648 0.60469C21.8253 0.60469 17.4676 4.5407 14.2345 9.60128H6.85443C5.72986 9.67157 4.39443 10.4447 3.83214 11.499L0.38813 18.4573C0.317844 18.6682 0.247559 18.9493 0.247559 19.1602C0.247559 20.1442 0.950418 20.847 1.93442 20.847H9.17387L7.62758 22.4636C6.78415 23.2367 6.71386 24.7128 7.62758 25.6265L11.2122 29.2111C11.9853 29.9842 13.4613 30.1248 14.375 29.2111L15.9213 27.6648V34.9042C15.9916 35.8882 16.6945 36.5911 17.6785 36.5911C17.8893 36.5911 18.1705 36.5208 18.3813 36.4505L25.3396 33.0065C26.3939 32.4442 27.1671 31.1088 27.1671 29.9842V22.6042C32.2979 19.371 36.1637 15.0133 36.1637 7.77385C36.2339 6.0167 36.2339 4.25956 35.7419 2.01041ZM27.2373 12.4127C25.6208 12.4127 24.4259 11.2179 24.4259 9.60128C24.4259 8.055 25.6208 6.78985 27.2373 6.78985C28.7836 6.78985 30.0488 8.055 30.0488 9.60128C30.0488 11.2179 28.7836 12.4127 27.2373 12.4127Z" fill="#C6FF00"/>
</svg>
