<svg width="47" height="37" viewBox="0 0 47 37" fill="none" xmlns="http://www.w3.org/2000/svg">
<path d="M35.5654 14.0996H24.8819V18.0356C24.8819 20.847 22.5625 23.0962 19.8213 23.0962C17.0099 23.0962 14.7608 20.847 14.7608 18.0356V9.531L10.1922 12.2721C8.78646 13.0453 8.01332 14.5213 8.01332 16.1379V19.4413L2.39044 22.6745C1.26587 23.307 0.91444 24.7128 1.54701 25.767L7.16988 35.4665C7.80246 36.5911 9.13789 36.9425 10.2625 36.3099L17.5019 32.0928H27.1311C29.5911 32.0928 31.6294 30.1248 31.6294 27.5945H32.754C33.9488 27.5945 35.0031 26.6105 35.0031 25.3453V20.847H35.5654C36.4791 20.847 37.2523 20.1442 37.2523 19.1602V15.7864C37.2523 14.8727 36.4791 14.0996 35.5654 14.0996ZM45.8974 11.499L40.2745 1.72926C39.642 0.674975 38.3065 0.323546 37.2523 0.956119L29.9425 5.10299H22.7734C21.9299 5.10299 21.0865 5.38413 20.3836 5.80585L18.0642 7.28185C17.3613 7.70357 17.0099 8.40642 17.0099 9.17957V18.0356C17.0099 19.6522 18.2048 20.847 19.8213 20.847C21.3676 20.847 22.6328 19.6522 22.6328 18.0356V11.8504H35.5654C37.674 11.8504 39.5014 13.6779 39.5014 15.7864V17.8247L45.1243 14.5916C46.1786 13.959 46.53 12.5533 45.8974 11.499Z" fill="#C6FF00"/>
</svg>
