<svg width="32" height="37" viewBox="0 0 32 37" fill="none" xmlns="http://www.w3.org/2000/svg">
<path d="M24.7539 22.8804C23.1374 22.8804 21.6614 23.4426 20.5368 24.3564L13.2973 19.8581C13.4379 19.4363 13.4379 18.9443 13.4379 18.3821C13.4379 17.8901 13.4379 17.3981 13.2973 16.9763L20.5368 12.478C21.6614 13.3918 23.1374 13.8838 24.7539 13.8838C28.4791 13.8838 31.5014 10.9318 31.5014 7.13632C31.5014 3.41116 28.4791 0.388869 24.7539 0.388869C20.9585 0.388869 18.0065 3.41116 18.0065 7.13632C18.0065 7.6986 18.0065 8.1906 18.1471 8.61232L10.9076 13.1106C9.78305 12.1969 8.30704 11.6346 6.76075 11.6346C2.96532 11.6346 0.0133076 14.6569 0.0133076 18.3821C0.0133076 22.1775 2.96532 25.1295 6.76075 25.1295C8.30704 25.1295 9.78305 24.6375 10.9076 23.7238L18.1471 28.2221C18.0065 28.6438 18.0065 29.1358 18.0065 29.6981V29.6278C18.0065 33.4232 20.9585 36.3753 24.7539 36.3753C28.4791 36.3753 31.5014 33.4232 31.5014 29.6278C31.5014 25.9027 28.4791 22.8804 24.7539 22.8804Z" fill="#C6FF00"/>
</svg>
