<svg width="35" height="37" viewBox="0 0 35 37" fill="none" xmlns="http://www.w3.org/2000/svg">
<path d="M32.0008 6.29289L18.5059 0.670013C18.0842 0.529441 17.6625 0.459155 17.2407 0.459155C16.7487 0.459155 16.327 0.529441 15.9053 0.670013L2.41042 6.29289C1.14528 6.85517 0.372133 8.05003 0.372133 9.38546C0.372133 23.3724 8.38473 33.0015 15.9053 36.1644C16.7487 36.5158 17.6625 36.5158 18.5059 36.1644C24.5505 33.6341 34.1094 24.9889 34.1094 9.38546C34.1094 8.05003 33.2659 6.85517 32.0008 6.29289ZM17.2407 31.8067V5.02774L29.5408 10.1586C29.3299 20.7718 23.7773 28.5032 17.2407 31.8067Z" fill="#C6FF00"/>
</svg>
