<svg xmlns="http://www.w3.org/2000/svg" width="32" height="32" viewBox="0 0 32 32"><defs><style>.a{fill:#e0752f;}.b{fill:#fff;}</style></defs><g transform="translate(-1228 -2507)"><circle class="a" cx="16" cy="16" r="16" transform="translate(1228 2507)"/><path class="b" d="M10.963,10.589,3.675,17.877a.9.9,0,0,1-1.273,0l-.85-.85a.9.9,0,0,1,0-1.271l5.776-5.8L1.551,4.15a.9.9,0,0,1,0-1.271l.85-.85a.9.9,0,0,1,1.273,0l7.288,7.288A.9.9,0,0,1,10.963,10.589Z" transform="translate(1238.711 2513.235)"/></g></svg>