<svg width="31" height="32" viewBox="0 0 31 32" fill="none" xmlns="http://www.w3.org/2000/svg">
<g clip-path="url(#clip0_98_242)">
<path d="M26.8673 5.56579L19.0349 1.04804C16.8329 -0.219137 14.1693 -0.219137 11.9673 1.04804L4.16121 5.55201C2.18332 6.68145 0.957031 8.85768 0.957031 11.213V19.7526C0.957031 22.4798 2.36792 24.9866 4.66227 26.2951L13.5496 31.4189C14.7627 32.1213 16.2395 32.1213 17.4526 31.4189L26.3399 26.2951C28.6211 24.9728 30.0451 22.466 30.0451 19.7526V11.1717C30.0451 8.84391 28.832 6.69522 26.8673 5.56579ZM26.7882 13.0173L18.4943 27.3694C18.1778 27.9204 17.7295 28.3611 17.2153 28.6642C16.701 28.9672 16.1076 29.1325 15.5011 29.1325C14.2748 29.1325 13.1408 28.4576 12.5079 27.3694L4.21395 13.0173C3.54147 11.8603 3.54147 10.4003 4.21395 9.24335L4.26669 9.14693C4.89962 8.05881 6.03361 7.39768 7.25989 7.39768H23.7423C24.9686 7.39768 26.1026 8.07259 26.7355 9.1607L26.7882 9.25712C27.4607 10.4141 27.4607 11.8603 26.7882 13.0173Z" fill="#ACFD00"/>
<path d="M20.0236 11.4473H10.9781C10.7276 11.4473 10.5298 11.6539 10.5298 11.9156V12.4252C10.5298 12.6869 10.7276 12.8935 10.9781 12.8935H14.1427C14.4987 12.8935 14.7756 13.1965 14.7756 13.5546V23.816C14.7756 24.0777 14.9734 24.2843 15.224 24.2843H15.7646C16.0151 24.2843 16.2129 24.0777 16.2129 23.816V13.5684C16.2129 13.1965 16.503 12.9073 16.8458 12.9073H20.0236C20.2742 12.9073 20.472 12.7007 20.472 12.439V11.9293C20.472 11.6676 20.2742 11.4473 20.0236 11.4473Z" fill="#ACFD00"/>
</g>
<defs>
<clipPath id="clip0_98_242">
<rect width="29.0881" height="31.8584" fill="white" transform="translate(0.957031 0.0976562)"/>
</clipPath>
</defs>
</svg>
