<svg width="259" height="45" viewBox="0 0 259 45" fill="none" xmlns="http://www.w3.org/2000/svg">
<path d="M43.0558 1.47168H1.16286C0.892035 1.47168 0.678223 1.65818 0.678223 1.89442V5.0774C0.678223 5.31364 0.892035 5.50014 1.16286 5.50014H18.4104C19.0946 5.50014 19.6505 5.98505 19.6505 6.58186V43.7705C19.6505 44.0068 19.8643 44.1933 20.1351 44.1933H23.9837C24.2546 44.1933 24.4684 44.0068 24.4684 43.7705V6.58186C24.4684 5.98505 25.0243 5.50014 25.7085 5.50014H43.0415C43.3123 5.50014 43.5261 5.31364 43.5261 5.0774V1.89442C43.5404 1.65818 43.3266 1.47168 43.0558 1.47168Z" fill="white"/>
<path d="M47.8452 16.5167L47.7454 14.03C47.7311 13.8062 47.5173 13.6197 47.2608 13.6197H44.0393C43.7685 13.6197 43.5547 13.8062 43.5547 14.0424V43.7586C43.5547 43.9948 43.7685 44.1813 44.0393 44.1813H47.6171C47.8879 44.1813 48.1018 43.9948 48.1018 43.7586V28.6643C48.1018 22.0745 53.5753 17.4741 61.4151 17.4741C61.6859 17.4741 61.8997 17.2876 61.8997 17.0513V13.744C61.8997 13.5078 61.6859 13.3213 61.4151 13.3213C56.7683 13.3213 52.8484 14.689 49.969 17.2503C49.2136 17.9217 47.8737 17.4741 47.8452 16.5167Z" fill="white"/>
<path d="M200.906 16.5167L200.806 14.03C200.792 13.8062 200.578 13.6197 200.322 13.6197H197.1C196.83 13.6197 196.616 13.8062 196.616 14.0424V43.7586C196.616 43.9948 196.83 44.1813 197.1 44.1813H200.678C200.949 44.1813 201.163 43.9948 201.163 43.7586V28.6643C201.163 22.0745 206.636 17.4741 214.476 17.4741C214.747 17.4741 214.961 17.2876 214.961 17.0513V13.744C214.961 13.5078 214.747 13.3213 214.476 13.3213C209.829 13.3213 205.909 14.689 203.03 17.2503C202.275 17.9217 200.935 17.4741 200.906 16.5167Z" fill="white"/>
<path d="M92.9026 28.1918C92.6888 33.961 90.6077 40.8367 81.8557 40.8367C75.427 40.8367 72.562 38.1635 72.562 32.183V14.1171C72.562 13.8808 72.3481 13.6943 72.0773 13.6943H68.4995C68.2287 13.6943 68.0149 13.8808 68.0149 14.1171V32.183C68.0149 40.4637 72.2626 44.4922 81.0147 44.4922C85.2766 44.4922 88.6406 43.4602 91.0923 41.3962C91.8763 40.7373 93.1734 41.1973 93.2019 42.1422L93.259 43.771C93.2732 44.0073 93.487 44.1813 93.7436 44.1813H96.965C97.2359 44.1813 97.4497 43.9948 97.4497 43.7586V14.1171C97.4497 13.8808 97.2359 13.6943 96.965 13.6943H93.3872C93.1164 13.6943 92.9026 13.8808 92.9026 14.1171V28.1918Z" fill="white"/>
<path d="M119.273 27.5822C113.956 26.774 109.366 26.0653 109.366 22.099C109.366 18.7046 112.131 17.051 117.819 17.051C123.193 17.051 125.801 18.6673 126.271 22.2855L126.286 22.4222C126.314 22.6336 126.528 22.7953 126.77 22.7953H130.348C130.633 22.7953 130.861 22.5839 130.833 22.3352L130.818 22.1736C130.191 16.3547 125.83 13.3955 117.819 13.3955C109.395 13.3955 104.748 16.5039 104.748 22.1611C104.748 29.2482 112.16 30.3673 118.104 31.2625C122.865 31.9712 126.97 32.5929 126.97 35.6764C126.97 38.2377 125.901 40.8487 117.961 40.8487C110.62 40.8487 108.881 38.6107 108.525 35.2661L108.511 35.1293C108.482 34.9055 108.283 34.7439 108.026 34.7439H104.391C104.106 34.7439 103.892 34.9552 103.907 35.1915L103.921 35.3531C104.391 41.5201 108.995 44.5166 117.961 44.5166C127.255 44.5166 131.588 41.6942 131.588 35.6266C131.588 29.4721 125.046 28.4649 119.273 27.5822Z" fill="white"/>
<path d="M145.928 35.7884V17.5858C145.928 17.3495 146.142 17.163 146.413 17.163H155.036C155.307 17.163 155.521 16.9765 155.521 16.7403V14.0547C155.521 13.8184 155.307 13.6319 155.036 13.6319H147.168C146.484 13.6319 145.928 13.147 145.928 12.5502V5.33876C145.928 5.10252 145.714 4.91602 145.443 4.91602H141.866C141.595 4.91602 141.381 5.10252 141.381 5.33876V12.5502C141.381 13.147 140.825 13.6319 140.141 13.6319H135.85C135.58 13.6319 135.366 13.8184 135.366 14.0547V16.7403C135.366 16.9765 135.58 17.163 135.85 17.163H140.896C141.167 17.163 141.381 17.3495 141.381 17.5858V36.0993C141.381 41.6944 143.961 44.1935 149.748 44.1935H155.464C155.735 44.1935 155.949 44.007 155.949 43.7708V40.9608C155.949 40.7245 155.735 40.538 155.464 40.538H150.39C146.684 40.538 145.928 39.7299 145.928 35.7884Z" fill="white"/>
<path d="M190.472 27.0224C190.073 18.3562 184.186 13.3828 174.322 13.3828C163.888 13.3952 157.901 19.0649 157.901 28.9496C157.901 38.8342 163.888 44.5039 174.336 44.5039C182.504 44.5039 187.835 41.209 189.759 34.9674L189.816 34.7809C189.902 34.5074 189.66 34.2463 189.346 34.2463H185.554C185.341 34.2463 185.155 34.3582 185.098 34.5322L185.056 34.6317C183.488 38.7472 179.867 40.836 174.336 40.836C167.095 40.836 163.076 37.1433 162.691 30.1308H190.002C190.273 30.1308 190.486 29.9443 190.486 29.708L190.472 27.0224ZM162.862 26.4753C163.632 20.3083 167.58 17.0507 174.322 17.0507C179.226 17.0507 185.113 18.7044 185.683 26.4753H162.862Z" fill="white"/>
<path d="M254.944 5.22815L246.319 0.933682C243.894 -0.270863 240.961 -0.270863 238.536 0.933682L229.94 5.21505C227.762 6.28867 226.411 8.35734 226.411 10.5962V18.7138C226.411 21.3062 227.965 23.6891 230.491 24.9329L240.278 29.8035C241.614 30.4712 243.24 30.4712 244.576 29.8035L254.363 24.9329C256.875 23.676 258.443 21.2931 258.443 18.7138V10.5569C258.443 8.34425 257.107 6.30176 254.944 5.22815ZM254.857 12.3114L245.723 25.9542C245.375 26.4779 244.881 26.8969 244.315 27.1849C243.749 27.4729 243.095 27.6301 242.427 27.6301C241.077 27.6301 239.828 26.9885 239.131 25.9542L229.998 12.3114C229.257 11.2116 229.257 9.82375 229.998 8.72394L230.056 8.63229C230.753 7.59796 232.002 6.9695 233.352 6.9695H251.503C252.853 6.9695 254.102 7.61105 254.799 8.64539L254.857 8.73704C255.597 9.83684 255.597 11.2116 254.857 12.3114Z" fill="white"/>
<path d="M247.407 10.8184H237.446C237.17 10.8184 236.953 11.0148 236.953 11.2635V11.748C236.953 11.9967 237.17 12.1931 237.446 12.1931H240.931C241.323 12.1931 241.628 12.4812 241.628 12.8216V22.5758C241.628 22.8245 241.846 23.0209 242.122 23.0209H242.717C242.993 23.0209 243.211 22.8245 243.211 22.5758V12.8347C243.211 12.4812 243.53 12.2062 243.908 12.2062H247.407C247.683 12.2062 247.901 12.0098 247.901 11.761V11.2766C247.901 11.0278 247.683 10.8184 247.407 10.8184Z" fill="white"/>
</svg>
