<svg xmlns="http://www.w3.org/2000/svg" width="60" height="42" viewBox="0 0 60 42"><defs><style>.a{fill:#e0752f;}</style></defs><path class="a" d="M50.4,20.494A9.011,9.011,0,0,0,42,8.25a8.954,8.954,0,0,0-5,1.519A15,15,0,0,0,9,17.25c0,.253.009.506.019.759A13.5,13.5,0,0,0,13.5,44.25H48a12,12,0,0,0,2.4-23.756ZM36.881,26.25H30.75v10.5a1.5,1.5,0,0,1-1.5,1.5h-4.5a1.5,1.5,0,0,1-1.5-1.5V26.25H17.119a1.5,1.5,0,0,1-1.059-2.559l9.881-9.881a1.505,1.505,0,0,1,2.119,0l9.881,9.881A1.5,1.5,0,0,1,36.881,26.25Z" transform="translate(0 -2.25)"/></svg>