<svg xmlns="http://www.w3.org/2000/svg" width="46.5" height="46.5" viewBox="0 0 46.5 46.5"><defs><style>.a{fill:#e0752f;}</style></defs><path class="a" d="M23.25.563A23.25,23.25,0,1,0,46.5,23.813,23.25,23.25,0,0,0,23.25.563Zm7.715,33.525c-.366.364-.749.745-1.06,1.058a2.24,2.24,0,0,0-.578,1c-.142.531-.256,1.067-.447,1.582l-1.63,4.392a18.736,18.736,0,0,1-4,.44V40a7.019,7.019,0,0,0-2.122-4.8,3,3,0,0,1-.878-2.122v-3a2.99,2.99,0,0,0-1.543-2.622C17.36,26.7,15.443,25.659,14.131,25a13.515,13.515,0,0,1-2.967-2.039l-.075-.067A10.762,10.762,0,0,1,9.4,20.948c-.879-1.291-2.312-3.414-3.243-4.794A18.852,18.852,0,0,1,15.828,6.6l2.251,1.126A1.5,1.5,0,0,0,20.25,6.385V5.326A18.736,18.736,0,0,1,22.537,5.1L25.19,7.752a1.5,1.5,0,0,1,0,2.122l-.44.439-.969.969a.75.75,0,0,0,0,1.06l.44.44a.75.75,0,0,1,0,1.06l-.75.75a.751.751,0,0,1-.531.219H22.1a.749.749,0,0,0-.523.213l-.93.9a.751.751,0,0,0-.148.873l1.462,2.924a.75.75,0,0,1-.67,1.086h-.529a.749.749,0,0,1-.491-.184l-.87-.756a1.5,1.5,0,0,0-1.458-.291l-2.922.974a1.121,1.121,0,0,0-.146,2.065l1.039.519a6.349,6.349,0,0,0,2.842.671c.986,0,2.118,2.558,3,3h6.258a3,3,0,0,1,2.122.878l1.283,1.283A2.86,2.86,0,0,1,32.251,31a4.363,4.363,0,0,1-1.286,3.092Zm8.129-8.564a2.25,2.25,0,0,1-1.327-.935L36.082,22.06a2.247,2.247,0,0,1,0-2.5l1.837-2.754a2.247,2.247,0,0,1,.866-.764L40,15.438a18.163,18.163,0,0,1,1.828,10.769Z" transform="translate(0 -0.563)"/></svg>