<svg xmlns="http://www.w3.org/2000/svg" width="60" height="42" viewBox="0 0 60 42"><defs><style>.a{fill:#e0752f;}</style></defs><path class="a" d="M18,23.25A10.5,10.5,0,1,0,7.5,12.75,10.495,10.495,0,0,0,18,23.25Zm7.2,3h-.778a14.5,14.5,0,0,1-12.844,0H10.8A10.8,10.8,0,0,0,0,37.05v2.7a4.5,4.5,0,0,0,4.5,4.5h27a4.5,4.5,0,0,0,4.5-4.5v-2.7A10.8,10.8,0,0,0,25.2,26.25Zm19.8-3a9,9,0,1,0-9-9A9,9,0,0,0,45,23.25Zm4.5,3h-.356a11.822,11.822,0,0,1-8.288,0H40.5a10.413,10.413,0,0,0-5.222,1.444A13.72,13.72,0,0,1,39,37.05v3.6c0,.206-.047.4-.056.6H55.5a4.5,4.5,0,0,0,4.5-4.5,10.5,10.5,0,0,0-10.5-10.5Z" transform="translate(0 -2.25)"/></svg>