<svg xmlns="http://www.w3.org/2000/svg" width="48" height="48" viewBox="0 0 48 48"><defs><style>.a{fill:#e0752f;}</style></defs><path class="a" d="M18,19.5a3,3,0,0,0-3-3H13.5a6,6,0,0,0-6,6V27a6,6,0,0,0,6,6H15a3,3,0,0,0,3-3ZM34.5,33a6,6,0,0,0,6-6V22.5a6,6,0,0,0-6-6H33a3,3,0,0,0-3,3V30a3,3,0,0,0,3,3ZM24,0C10.611,0,.429,11.14,0,24v1.5A1.5,1.5,0,0,0,1.5,27H3a1.5,1.5,0,0,0,1.5-1.5V24a19.5,19.5,0,0,1,39,0h-.011c.008.228.011,15.536.011,15.536A3.964,3.964,0,0,1,39.536,43.5H30A4.5,4.5,0,0,0,25.5,39h-3a4.5,4.5,0,0,0,0,9H39.536A8.464,8.464,0,0,0,48,39.536V24C47.571,11.14,37.389,0,24,0Z"/></svg>